<?xml version="1.0" standalone="no"?>
<!DOCTYPE svg PUBLIC "-//W3C//DTD SVG 20010904//EN"
 "http://www.w3.org/TR/2001/REC-SVG-20010904/DTD/svg10.dtd">
<svg version="1.0" xmlns="http://www.w3.org/2000/svg"
 width="700.000000pt" height="700.000000pt" viewBox="0 0 700.000000 700.000000"
 preserveAspectRatio="xMidYMid meet">
<metadata>
Created by potrace 1.14, written by Peter Selinger 2001-2017
</metadata>
<g transform="translate(0.000000,700.000000) scale(0.100000,-0.100000)"
fill="#000000" stroke="none">
<path d="M34 6966 l-34 -34 0 -3432 0 -3432 34 -34 34 -34 3432 0 3432 0 34
34 34 34 0 3432 0 3432 -34 34 -34 34 -3432 0 -3432 0 -34 -34z m3086 -1864
c0 -5 20 -224 45 -487 25 -263 44 -479 43 -480 -5 -4 -82 -25 -83 -22 -1 1
-18 54 -38 117 -72 222 -184 420 -296 522 -31 28 -90 67 -131 87 -71 34 -80
36 -180 36 -99 0 -110 -2 -171 -32 -159 -79 -258 -258 -259 -468 0 -200 96
-368 304 -529 44 -35 180 -129 301 -208 121 -80 256 -174 300 -210 225 -183
349 -376 385 -600 18 -108 8 -302 -20 -397 -64 -223 -208 -395 -415 -496 -117
-57 -230 -85 -381 -92 -153 -7 -251 7 -407 58 -88 29 -130 39 -154 34 -39 -7
-88 -62 -113 -126 -16 -41 -20 -44 -59 -47 -22 -2 -41 -2 -41 0 -8 50 -66
1045 -62 1050 4 3 24 11 44 16 l36 10 18 -72 c27 -114 82 -263 135 -372 138
-280 326 -414 579 -414 152 0 270 44 371 137 95 88 144 192 156 329 18 215
-82 406 -310 590 -43 35 -183 133 -310 218 -128 85 -268 184 -313 220 -190
153 -308 318 -360 507 -14 49 -18 98 -18 209 1 127 4 156 28 233 74 248 217
417 437 521 123 59 185 71 349 70 125 0 159 -4 243 -27 130 -36 170 -35 208 2
15 16 34 50 41 75 12 46 13 46 55 46 24 0 43 -4 43 -8z m2314 -24 c3 -18 19
-177 36 -353 16 -176 32 -334 34 -351 4 -28 1 -31 -37 -41 -23 -7 -43 -10 -45
-9 -1 2 -23 57 -48 122 -71 188 -121 282 -184 345 -82 83 -126 94 -360 94
-212 0 -233 -6 -265 -70 -19 -39 -20 -63 -23 -759 l-3 -719 158 6 c87 4 236
10 331 13 l172 7 0 -62 0 -61 -331 0 -330 0 3 -562 c3 -621 2 -606 67 -660 32
-27 88 -42 196 -53 125 -12 125 -12 125 -50 l0 -35 -575 0 -575 0 0 34 c0 38
-2 37 135 51 137 14 194 52 214 145 15 71 15 2569 0 2639 -6 28 -20 62 -31 76
-37 47 -65 55 -275 81 -41 5 -43 7 -43 39 l0 34 734 3 c727 3 735 3 763 24 15
11 38 39 51 62 21 38 27 42 62 42 36 0 39 -2 44 -32z"/>
</g>
</svg>
